<!DOCTYPE svg PUBLIC "-//W3C//DTD SVG 1.1//EN" "http://www.w3.org/Graphics/SVG/1.1/DTD/svg11.dtd">
<!-- Uploaded to: SVG Repo, www.svgrepo.com, Transformed by: SVG Repo Mixer Tools -->
<svg fill="#ffffff" width="159px" height="159px" viewBox="0 0 32.00 32.00" xmlns="http://www.w3.org/2000/svg" stroke="#ffffff" stroke-width="0.00032" transform="matrix(1, 0, 0, 1, 0, 0)">
<g id="SVGRepo_bgCarrier" stroke-width="0"/>
<g id="SVGRepo_tracerCarrier" stroke-linecap="round" stroke-linejoin="round" stroke="#CCCCCC" stroke-width="0.128"/>
<g id="SVGRepo_iconCarrier"> <g id="Group_32" data-name="Group 32" transform="translate(-166 -321.048)"> <path id="Path_313" data-name="Path 313" d="M178,345.048h16a4,4,0,0,0,4-4v-16a4,4,0,0,0-4-4H178a4,4,0,0,0-4,4v20Zm16-4H178v-16h16Z"/> <path id="Path_314" data-name="Path 314" d="M186,349.048H170v-20a4,4,0,0,0-4,4v16a4,4,0,0,0,4,4h16a4,4,0,0,0,4-4"/> </g> </g>
</svg>